<svg width="42" height="15" viewBox="0 0 42 15" fill="none" xmlns="http://www.w3.org/2000/svg">
<path d="M10.352 9.11996C11.708 9.11996 12.656 8.51996 12.968 7.51196H13.052V8.99996H14.24V5.37596C14.24 3.94796 13.388 2.91596 11.492 2.91596C9.596 2.91596 8.468 3.93596 8.468 5.29196V5.33996H9.752V5.29196C9.752 4.41596 10.292 4.05596 11.396 4.05596C12.536 4.05596 12.968 4.40396 12.968 5.38796V5.73596L10.256 6.02396C9.08 6.15596 8.336 6.63596 8.336 7.55996C8.336 8.54396 9.116 9.11996 10.352 9.11996ZM9.632 7.47596C9.632 7.00796 9.956 6.85196 10.628 6.76796L12.968 6.50396C12.968 7.67996 12.056 8.18396 10.7 8.18396C9.956 8.18396 9.632 7.95596 9.632 7.47596Z" fill="#1B2021"/>
<path d="M19.3089 8.99996V7.83596H18.2289C17.4849 7.83596 17.1489 7.64396 17.1489 6.91196V4.11596H19.3089V3.03596H17.1489V1.72796H15.8649V3.03596H14.8569V4.11596H15.8649V6.98396C15.8649 8.43596 16.6569 8.99996 17.9409 8.99996H19.3089Z" fill="#1B2021"/>
<path d="M21.4155 8.99996V6.10796C21.4155 4.84796 21.9195 4.07996 23.3355 4.07996C24.5715 4.07996 25.1115 4.55996 25.1115 5.75996V8.99996H26.3955V5.44796C26.3955 3.99596 25.5915 2.91596 23.9475 2.91596C22.4235 2.91596 21.6915 3.85196 21.4875 4.85996H21.4155V0.959961H20.1195V8.99996H21.4155Z" fill="#1B2021"/>
<path d="M30.5609 9.11996C32.3369 9.11996 33.5849 8.24396 33.5849 6.97196V6.86396H32.2889V6.95996C32.2889 7.66796 31.7729 8.07596 30.5249 8.07596C29.1449 8.07596 28.5809 7.46396 28.5329 6.31196H33.5969C33.6329 6.13196 33.6449 5.96396 33.6449 5.74796C33.6449 3.93596 32.3849 2.91596 30.5369 2.91596C28.5929 2.91596 27.3209 4.16396 27.3209 6.02396C27.3209 8.01596 28.6049 9.11996 30.5609 9.11996ZM30.5129 3.93596C31.7849 3.93596 32.4209 4.46396 32.4209 5.56796V5.59196H28.5449C28.6169 4.52396 29.1929 3.93596 30.5129 3.93596Z" fill="#1B2021"/>
<path d="M35.9116 8.99996V6.04796C35.9116 4.75196 36.4996 4.07996 37.8076 4.07996C39.0436 4.07996 39.5476 4.64396 39.5476 5.75996V8.99996H40.8436V5.41196C40.8436 4.03196 40.0276 2.91596 38.3716 2.91596C36.8596 2.91596 36.0676 3.87596 35.8876 4.88396H35.8036V3.03596H34.6156V8.99996H35.9116Z" fill="#1B2021"/>
<path d="M9.77602 14.06C10.604 14.06 11.252 13.568 11.252 12.854V12.806H10.832V12.842C10.832 13.37 10.448 13.67 9.77002 13.67C8.97802 13.67 8.63602 13.244 8.63602 12.518C8.63602 11.792 8.97802 11.366 9.77002 11.366C10.448 11.366 10.832 11.666 10.832 12.194V12.23H11.252V12.182C11.252 11.468 10.604 10.976 9.77602 10.976C8.82802 10.976 8.21002 11.618 8.21002 12.518C8.21002 13.418 8.82802 14.06 9.77602 14.06Z" fill="#1B2021"/>
<path d="M13.2749 14.06C14.2469 14.06 14.8889 13.418 14.8889 12.518C14.8889 11.618 14.2469 10.976 13.2749 10.976C12.3089 10.976 11.6669 11.618 11.6669 12.518C11.6669 13.418 12.3089 14.06 13.2749 14.06ZM13.2749 13.676C12.4589 13.676 12.0869 13.238 12.0869 12.518C12.0869 11.804 12.4589 11.36 13.2749 11.36C14.0909 11.36 14.4689 11.804 14.4689 12.518C14.4689 13.238 14.0909 13.676 13.2749 13.676Z" fill="#1B2021"/>
<path d="M15.8817 14V12.566C15.8817 11.804 16.2597 11.366 16.9797 11.366C17.6577 11.366 17.9517 11.72 17.9517 12.332V14H18.3777V12.272C18.3777 11.57 17.9637 10.976 17.1297 10.976C16.3917 10.976 15.9717 11.462 15.8697 11.966H15.8397V11.036H15.4557V14H15.8817Z" fill="#1B2021"/>
<path d="M19.707 14V11.402H20.901V11.036H19.707C19.683 10.496 19.977 10.316 20.517 10.316H20.901V9.97998H20.577C19.809 9.97998 19.335 10.334 19.287 11.036H18.807V11.402H19.281V14H19.707Z" fill="#1B2021"/>
<path d="M22.731 14.06C23.559 14.06 24.171 13.634 24.171 13.016V12.974H23.745V13.016C23.745 13.448 23.421 13.706 22.725 13.706C21.939 13.706 21.597 13.304 21.573 12.638H24.183C24.201 12.56 24.213 12.47 24.213 12.362C24.213 11.48 23.595 10.976 22.725 10.976C21.771 10.976 21.171 11.618 21.171 12.518C21.171 13.46 21.777 14.06 22.731 14.06ZM22.719 11.33C23.415 11.33 23.811 11.66 23.811 12.284C23.811 12.314 23.811 12.344 23.811 12.374H21.573C21.603 11.726 21.951 11.33 22.719 11.33Z" fill="#1B2021"/>
<path d="M25.204 14V12.392C25.204 11.726 25.468 11.348 26.068 11.348C26.584 11.348 26.794 11.594 26.794 12.098V12.326H27.22V12.032C27.22 11.48 26.92 10.976 26.236 10.976C25.618 10.976 25.282 11.372 25.192 11.846H25.162V11.036H24.778V14H25.204Z" fill="#1B2021"/>
<path d="M29.1235 14.06C29.9515 14.06 30.5635 13.634 30.5635 13.016V12.974H30.1375V13.016C30.1375 13.448 29.8135 13.706 29.1175 13.706C28.3315 13.706 27.9895 13.304 27.9655 12.638H30.5755C30.5935 12.56 30.6055 12.47 30.6055 12.362C30.6055 11.48 29.9875 10.976 29.1175 10.976C28.1635 10.976 27.5635 11.618 27.5635 12.518C27.5635 13.46 28.1695 14.06 29.1235 14.06ZM29.1115 11.33C29.8075 11.33 30.2035 11.66 30.2035 12.284C30.2035 12.314 30.2035 12.344 30.2035 12.374H27.9655C27.9955 11.726 28.3435 11.33 29.1115 11.33Z" fill="#1B2021"/>
<path d="M31.5966 14V12.566C31.5966 11.804 31.9746 11.366 32.6946 11.366C33.3726 11.366 33.6666 11.72 33.6666 12.332V14H34.0926V12.272C34.0926 11.57 33.6786 10.976 32.8446 10.976C32.1066 10.976 31.6866 11.462 31.5846 11.966H31.5546V11.036H31.1706V14H31.5966Z" fill="#1B2021"/>
<path d="M36.2018 14.06C37.0298 14.06 37.6778 13.568 37.6778 12.854V12.806H37.2578V12.842C37.2578 13.37 36.8738 13.67 36.1958 13.67C35.4038 13.67 35.0618 13.244 35.0618 12.518C35.0618 11.792 35.4038 11.366 36.1958 11.366C36.8738 11.366 37.2578 11.666 37.2578 12.194V12.23H37.6778V12.182C37.6778 11.468 37.0298 10.976 36.2018 10.976C35.2538 10.976 34.6358 11.618 34.6358 12.518C34.6358 13.418 35.2538 14.06 36.2018 14.06Z" fill="#1B2021"/>
<path d="M39.6587 14.06C40.4867 14.06 41.0987 13.634 41.0987 13.016V12.974H40.6727V13.016C40.6727 13.448 40.3487 13.706 39.6527 13.706C38.8667 13.706 38.5247 13.304 38.5007 12.638H41.1107C41.1287 12.56 41.1407 12.47 41.1407 12.362C41.1407 11.48 40.5227 10.976 39.6527 10.976C38.6987 10.976 38.0987 11.618 38.0987 12.518C38.0987 13.46 38.7047 14.06 39.6587 14.06ZM39.6467 11.33C40.3427 11.33 40.7387 11.66 40.7387 12.284C40.7387 12.314 40.7387 12.344 40.7387 12.374H38.5007C38.5307 11.726 38.8787 11.33 39.6467 11.33Z" fill="#1B2021"/>
<path fill-rule="evenodd" clip-rule="evenodd" d="M0 4.33333V2L4.66667 2V4.33333L6.99998 4.33333V9H4.66665V6.66667C3.49999 6.66668 2.33333 7.83334 2.33333 9H0C0 6.66667 2.33332 4.33335 4.66665 4.33333H0Z" fill="#F72585"/>
</svg>
